
<svg width="55px" height="55px" viewBox="0 0 55 55" version="1.1" xmlns="http://www.w3.org/2000/svg" xmlns:xlink="http://www.w3.org/1999/xlink">
    <!-- Generator: Sketch 47.1 (45422) - http://www.bohemiancoding.com/sketch -->
    <desc>Created with Sketch.</desc>
    <defs>
        <path d="M259.5,112 C244.318721,112 232,124.318721 232,139.5 C232,154.681279 244.318721,167 259.5,167 C274.681279,167 287,154.681279 287,139.5 C287,124.318721 274.681279,112 259.5,112 Z" id="path-1"></path>
        <filter x="-3.6%" y="-3.6%" width="107.3%" height="107.3%" filterUnits="objectBoundingBox" id="filter-2">
            <feGaussianBlur stdDeviation="1.5" in="SourceAlpha" result="shadowBlurInner1"></feGaussianBlur>
            <feOffset dx="0" dy="1" in="shadowBlurInner1" result="shadowOffsetInner1"></feOffset>
            <feComposite in="shadowOffsetInner1" in2="SourceAlpha" operator="arithmetic" k2="-1" k3="1" result="shadowInnerInner1"></feComposite>
            <feColorMatrix values="0 0 0 0 0   0 0 0 0 0   0 0 0 0 0  0 0 0 0.5 0" type="matrix" in="shadowInnerInner1"></feColorMatrix>
        </filter>
        <path d="M273.282279,125 C272.84283,125 272.403352,125.167582 272.068185,125.503925 L259.998949,137.572374 L247.931815,125.505125 C247.260312,124.833615 246.17513,124.833615 245.503627,125.505125 C244.832124,126.176634 244.832124,127.261826 245.503627,127.933335 L257.570762,140.000585 L245.503627,152.067835 C244.832124,152.739344 244.832124,153.824536 245.503627,154.496045 C245.838794,154.831215 246.278242,154.998799 246.717721,154.998799 C247.15717,154.998799 247.596648,154.830045 247.931815,154.496045 L259.998949,142.428795 L272.068185,154.497246 C272.403352,154.832415 272.8428,155 273.282279,155 C273.721728,155 274.160036,154.831245 274.496373,154.497246 C275.167876,153.825736 275.167876,152.740544 274.496373,152.069035 L262.427137,140.000585 L274.496373,127.932135 C275.167876,127.260626 275.167876,126.175434 274.496373,125.503925 C274.161206,125.167585 273.721758,125 273.282279,125 Z" id="path-3"></path>
        <filter x="-6.7%" y="-6.7%" width="113.3%" height="113.3%" filterUnits="objectBoundingBox" id="filter-4">
            <feGaussianBlur stdDeviation="1.5" in="SourceAlpha" result="shadowBlurInner1"></feGaussianBlur>
            <feOffset dx="0" dy="1" in="shadowBlurInner1" result="shadowOffsetInner1"></feOffset>
            <feComposite in="shadowOffsetInner1" in2="SourceAlpha" operator="arithmetic" k2="-1" k3="1" result="shadowInnerInner1"></feComposite>
            <feColorMatrix values="0 0 0 0 0   0 0 0 0 0   0 0 0 0 0  0 0 0 0.5 0" type="matrix" in="shadowInnerInner1"></feColorMatrix>
        </filter>
    </defs>
    <g id="Hi-Fi-Prototypes" stroke="none" stroke-width="1" fill="none" fill-rule="evenodd">
        <g id="Toolbar---Insert-(w/o-shape)" transform="translate(-232.000000, -112.000000)">
            <g id="Page-1">
                <use fill="#FCE946" fill-rule="evenodd" xlink:href="#path-1"></use>
                <use fill="black" fill-opacity="1" filter="url(#filter-2)" xlink:href="#path-1"></use>
            </g>
            <g id="Page-1">
                <use fill="#4D5161" fill-rule="evenodd" xlink:href="#path-3"></use>
                <use fill="black" fill-opacity="1" filter="url(#filter-4)" xlink:href="#path-3"></use>
            </g>
        </g>
    </g>
</svg>