
<svg width="51px" height="47px" viewBox="0 0 51 47" version="1.1" xmlns="http://www.w3.org/2000/svg" xmlns:xlink="http://www.w3.org/1999/xlink">
    <!-- Generator: Sketch 47.1 (45422) - http://www.bohemiancoding.com/sketch -->
    <desc>Created with Sketch.</desc>
    <defs></defs>
    <g id="Hi-Fi-Prototypes" stroke="none" stroke-width="1" fill="none" fill-rule="evenodd">
        <g id="Toolbar---Insert-(w/o-shape)" transform="translate(-26.000000, -623.000000)" fill="#4A4A4A">
            <g id="Group-2" transform="translate(26.000000, 623.000000)">
                <path d="M45.792771,0.000340453745 C44.3814732,0.000340453745 43.0646667,0.552442943 42.0816166,1.55389279 L20.3310994,23.6823545 C20.3270747,23.6843714 20.3230552,23.6863832 20.3210429,23.6884001 C20.3170234,23.6904119 20.3170234,23.6944458 20.3150163,23.6984745 L15.4860741,28.6090039 C11.4532579,28.8125179 4.62419455,31.323194 3.65715035,40.0683674 C3.52647329,40.451218 2.89921209,42.0289683 1.43567638,42.2808525 C0.426481612,42.4561552 -0.0118017587,43.2117872 0.000241261163,43.88279 C0.0384387351,45.8675838 4.00289824,46.6131259 5.70575243,46.842829 C6.2887581,46.9214119 7.12909327,47 8.13226652,47 C12.4565856,47 19.7964974,45.506904 22.7336561,36.1147658 L49.5041569,8.88207711 C50.4791783,7.89269789 51.0099461,6.57689575 50.9998588,5.17850779 C50.9877952,3.78011983 50.4389835,2.47236478 49.4498604,1.49309601 C48.4688175,0.529921412 47.1720828,0 45.7929511,0 L45.792771,0.000340453745 Z M21.952974,26.9672131 L25.5,30.4512881 L22.0903701,33.9016393 L18.5454545,30.4175643 L21.952974,26.9672131 Z M12.6574258,43.2923318 C9.70081224,44.2197381 6.63616074,43.9594873 4.63636364,43.5134197 C5.99564274,42.2906018 6.46566501,40.6862732 6.49415911,40.5864503 C6.51450607,40.5140599 6.52874791,40.4397111 6.53688982,40.3653624 C7.3487891,32.7526774 13.7828278,31.7314086 15.7201135,31.5901639 L20.0909091,35.7320876 C18.7031375,39.6235776 16.2145667,42.1767497 12.6574414,43.2921816 L12.6574258,43.2923318 Z M47.2337623,7.13992655 L26.5419544,28.5081967 L23.1818182,25.1404697 L43.8756778,3.76802448 C44.7512583,2.86288032 46.320122,2.85270371 47.2097569,3.74152355 C47.6565697,4.19001455 47.9050406,4.79138431 47.9090415,5.43558978 C47.9130527,6.08183056 47.6726091,6.68726053 47.2338136,7.13983262 L47.2337623,7.13992655 Z" id="Page-1"></path>
                <polygon id="Path-4" points="15.8889972 30.2373029 21.9986954 35.9878518 15.8889972 43.1458777 6.38055401 46.1937934 3.04698287 44.7225293 6.38055401 38.2155482 6.38055401 35.9878518 12.5228391 30.2373029"></polygon>
                <polygon id="Path-5" points="21.8827533 24.5388004 26.4392065 30.0665132 50.1846427 5.6458871 46.0801138 0.883425483"></polygon>
            </g>
        </g>
    </g>
</svg>