
<svg width="45px" height="47px" viewBox="0 0 45 47" version="1.1" xmlns="http://www.w3.org/2000/svg" xmlns:xlink="http://www.w3.org/1999/xlink">
    <!-- Generator: Sketch 47.1 (45422) - http://www.bohemiancoding.com/sketch -->
    <desc>Created with Sketch.</desc>
    <defs></defs>
    <g id="Hi-Fi-Prototypes" stroke="none" stroke-width="1" fill="none" fill-rule="evenodd">
        <g id="Toolbar---Insert-(w/o-shape)" transform="translate(-32.000000, -199.000000)" fill="#4A4A4A">
            <path d="M75.8304635,235.029917 C76.5747227,233.693331 77,232.158499 77,230.526377 C77,225.339927 72.7284604,221.135777 67.4591952,221.135777 C63.8759497,221.135777 60.7572335,223.083692 59.1269878,225.958917 L44.1205148,218.591197 C44.2119164,218.17811 44.2604131,217.752153 44.2604131,217.313361 C44.2604131,216.421113 44.0589579,215.578403 43.706397,214.814653 L50.333866,209.110264 C51.2497451,209.73997 52.3614541,210.11268 53.5645601,210.11268 C56.6833241,210.11268 59.2107301,207.62497 59.2107301,204.5554 C59.208863,201.487569 56.6813663,199 53.5626501,199 C50.4439338,199 47.9164801,201.48771 47.9164801,204.55728 C47.9164801,205.743282 48.2970044,206.839369 48.9405169,207.740778 L42.6024237,213.195127 C41.4832176,212.018294 39.8958531,211.27842 38.1294194,211.27842 C34.743913,211.27842 32,213.98092 32,217.31322 C32,220.64552 34.7438648,223.34614 38.1294194,223.34614 C40.3696462,223.34614 42.3225983,222.160142 43.3916651,220.395809 L58.3456112,227.735799 C58.0676815,228.617049 57.9184572,229.553383 57.9184572,230.524591 C57.9184572,231.675715 58.1385643,232.775468 58.524666,233.794381 L50.2521484,237.115588 C49.2094406,235.45959 47.35161,234.354339 45.227229,234.354339 C41.961103,234.354339 39.3122165,236.961381 39.3122165,240.176228 C39.3122165,243.392816 41.9609598,246 45.227229,246 C48.493355,246 51.1422415,243.392957 51.1422415,240.178108 C51.1422415,239.739321 51.0900106,239.315235 50.9967466,238.905818 L59.398194,235.533192 C61.0881771,238.164111 64.0633038,239.915566 67.4582163,239.915566 C69.4447857,239.915566 71.2895323,239.317068 72.8173981,238.294442 C74.0708822,237.46461 75.1098653,236.342861 75.8317289,235.030152 L75.8304635,235.029917 Z" id="Page-1"></path>
        </g>
    </g>
</svg>