
<svg width="17px" height="22px" viewBox="0 0 17 22" version="1.1" xmlns="http://www.w3.org/2000/svg" xmlns:xlink="http://www.w3.org/1999/xlink">
    <!-- Generator: Sketch 47.1 (45422) - http://www.bohemiancoding.com/sketch -->
    <desc>Created with Sketch.</desc>
    <defs></defs>
    <g id="Hi-Fi-Prototypes" stroke="none" stroke-width="1" fill="none" fill-rule="evenodd">
        <g id="Toolbar---Insert-(w/o-shape)" transform="translate(-152.000000, -284.000000)" fill="#4A4A4A">
            <g id="Color-Icon-Copy-3" transform="translate(145.000000, 280.000000)">
                <g id="Page-1" transform="translate(15.500000, 15.000000) scale(-1, -1) translate(-15.500000, -15.000000) translate(7.000000, 4.000000)">
                    <path d="M16.5400877,4.10032119e-05 L0.459944139,4.10032119e-05 C0.206652639,4.10032119e-05 0,0.21306499 0,0.474120139 L0,8.08062598 C0,8.396158 0.0310766616,8.70207066 0.088575646,9 L16.9114244,9 C16.9689194,8.70208706 17,8.39454657 17,8.08062598 L17,0.472480011 C17,0.213007586 16.7979898,0 16.5400559,0 L16.5400877,4.10032119e-05 Z" id="Fill-1"></path>
                    <path d="M4.38878061,12.662131 L6.33836925,12.662131 L6.33836925,19.7808272 C6.33836925,21.0045357 7.41639569,22 8.74321988,22 C10.0684207,22 11.1464471,21.0045357 11.1464471,19.7808272 L11.1464471,12.662131 L12.614716,12.662131 C14.5756685,12.662131 16.2634721,11.5645372 17,10 L0,10 C0.73656954,11.5645372 2.42761998,12.662131 4.3886141,12.662131 L4.38878061,12.662131 Z M9,19.4995888 C9,19.7751655 8.77701955,20 8.5,20 C8.22464971,20 8,19.7768319 8,19.4995888 L8,18.5004112 C8,18.2248345 8.22298045,18 8.5,18 C8.77535029,18 9,18.2231638 9,18.5004112 L9,19.4995888 Z" id="Fill-2"></path>
                </g>
            </g>
        </g>
    </g>
</svg>