
<svg width="55px" height="55px" viewBox="0 0 55 55" version="1.1" xmlns="http://www.w3.org/2000/svg" xmlns:xlink="http://www.w3.org/1999/xlink">
    <!-- Generator: Sketch 47.1 (45422) - http://www.bohemiancoding.com/sketch -->
    <desc>Created with Sketch.</desc>
    <defs>
        <circle id="path-1" cx="154.5" cy="139.5" r="27.5"></circle>
        <filter x="-3.6%" y="-3.6%" width="107.3%" height="107.3%" filterUnits="objectBoundingBox" id="filter-2">
            <feGaussianBlur stdDeviation="1.5" in="SourceAlpha" result="shadowBlurInner1"></feGaussianBlur>
            <feOffset dx="0" dy="1" in="shadowBlurInner1" result="shadowOffsetInner1"></feOffset>
            <feComposite in="shadowOffsetInner1" in2="SourceAlpha" operator="arithmetic" k2="-1" k3="1" result="shadowInnerInner1"></feComposite>
            <feColorMatrix values="0 0 0 0 0   0 0 0 0 0   0 0 0 0 0  0 0 0 0.5 0" type="matrix" in="shadowInnerInner1"></feColorMatrix>
        </filter>
    </defs>
    <g id="Hi-Fi-Prototypes" stroke="none" stroke-width="1" fill="none" fill-rule="evenodd">
        <g id="Toolbar---Insert-(w/o-shape)" transform="translate(-127.000000, -112.000000)">
            <g id="Oval-4">
                <use fill="#FCE946" fill-rule="evenodd" xlink:href="#path-1"></use>
                <use fill="black" fill-opacity="1" filter="url(#filter-2)" xlink:href="#path-1"></use>
            </g>
            <path d="M168.108435,127.672806 C161.82875,119.947005 150.452399,118.755789 142.697735,125.012245 C134.943071,131.267117 133.747405,142.601124 140.027234,150.326925 C143.630744,154.760594 148.912523,157.042947 154.226714,156.999388 L154.067216,156.999388 L154.067216,153.727127 C149.763686,153.724315 145.499542,151.859666 142.580658,148.2682 C137.442801,141.947089 138.420942,132.67332 144.76563,127.554585 C151.110355,122.43585 160.417329,123.41035 165.555184,129.731424 L161.725729,132.820881 L172,135.061007 L171.937893,124.583422 L168.108435,127.672806 Z" id="Page-1" fill="#4D5161"></path>
        </g>
    </g>
</svg>