
<svg width="55px" height="55px" viewBox="0 0 55 55" version="1.1" xmlns="http://www.w3.org/2000/svg" xmlns:xlink="http://www.w3.org/1999/xlink">
    <!-- Generator: Sketch 47.1 (45422) - http://www.bohemiancoding.com/sketch -->
    <desc>Created with Sketch.</desc>
    <defs>
        <circle id="path-1" cx="48.5" cy="139.5" r="27.5"></circle>
        <filter x="-3.6%" y="-3.6%" width="107.3%" height="107.3%" filterUnits="objectBoundingBox" id="filter-2">
            <feGaussianBlur stdDeviation="1.5" in="SourceAlpha" result="shadowBlurInner1"></feGaussianBlur>
            <feOffset dx="0" dy="1" in="shadowBlurInner1" result="shadowOffsetInner1"></feOffset>
            <feComposite in="shadowOffsetInner1" in2="SourceAlpha" operator="arithmetic" k2="-1" k3="1" result="shadowInnerInner1"></feComposite>
            <feColorMatrix values="0 0 0 0 0   0 0 0 0 0   0 0 0 0 0  0 0 0 0.5 0" type="matrix" in="shadowInnerInner1"></feColorMatrix>
        </filter>
    </defs>
    <g id="Hi-Fi-Prototypes" stroke="none" stroke-width="1" fill="none" fill-rule="evenodd">
        <g id="Toolbar---Insert-(w/o-shape)" transform="translate(-21.000000, -112.000000)">
            <g id="Oval-4-Copy">
                <use fill="#FCE946" fill-rule="evenodd" xlink:href="#path-1"></use>
                <use fill="black" fill-opacity="1" filter="url(#filter-2)" xlink:href="#path-1"></use>
            </g>
            <path d="M62.1084346,127.672806 C55.8287498,119.947005 44.4523993,118.755789 36.6977348,125.012245 C28.9430713,131.267117 27.7474054,142.601124 34.0272337,150.326925 C37.6307444,154.760594 42.9125233,157.042947 48.2267143,156.999388 L48.0672163,156.999388 L48.0672163,153.727127 C43.7636864,153.724315 39.4995423,151.859666 36.5806578,148.2682 C31.4428014,141.947089 32.420942,132.67332 38.7656296,127.554585 C45.1103552,122.43585 54.4173294,123.41035 59.555184,129.731424 L55.7257289,132.820881 L66,135.061007 L65.9378933,124.583422 L62.1084346,127.672806 Z" id="Page-1-Copy-3" fill="#4D5161" transform="translate(48.000000, 139.000000) scale(-1, 1) translate(-48.000000, -139.000000) "></path>
        </g>
    </g>
</svg>